<?xml version="1.0" ?><!DOCTYPE svg  PUBLIC '-//W3C//DTD SVG 1.1//EN'  'http://www.w3.org/Graphics/SVG/1.1/DTD/svg11.dtd'><svg enable-background="new 0 0 1024 1024" height="1024px" id="Layer_1" version="1.1" viewBox="0 0 1024 1024" width="1024px" xml:space="preserve" xmlns="http://www.w3.org/2000/svg" xmlns:xlink="http://www.w3.org/1999/xlink"><g id="Background"><path d="M983.766,312.727c-25.785-60.972-62.694-115.728-109.705-162.744   C827.05,102.966,772.299,66.049,711.329,40.257C648.194,13.548,581.14,0.004,512,0c-69.104,0-136.155,13.54-199.289,40.243   c-60.969,25.787-115.721,62.699-162.735,109.71c-47.014,47.011-83.929,101.761-109.72,162.728   C13.548,375.814,0.004,442.865,0,511.97c-0.004,69.109,13.533,136.165,40.234,199.304   c25.785,60.973,62.696,115.728,109.707,162.743c47.011,47.018,101.762,83.935,162.732,109.727   c63.136,26.708,130.19,40.253,199.323,40.257h0.009c69.104,0,136.153-13.54,199.288-40.243   c60.969-25.787,115.72-62.699,162.733-109.709c47.013-47.01,83.929-101.76,109.72-162.728   c26.708-63.134,40.251-130.186,40.255-199.29C1024.004,442.921,1010.467,375.866,983.766,312.727z M512.004,976.328h-0.03   c-124.026-0.007-240.627-48.313-328.323-136.019C95.957,752.604,47.665,635.999,47.672,511.973   c0.015-256.016,208.312-464.3,464.356-464.3c124.026,0.007,240.626,48.312,328.32,136.017   c87.695,87.706,135.986,204.311,135.979,328.337C976.313,768.043,768.018,976.328,512.004,976.328z" fill="#262626"/></g><g id="Blogger_1_"><path d="M739.564,441.714c-37.859,0-46.272-19.631-46.272-46.273s-6.31-67.305-53.283-117.083   c-45.515-48.233-99.557-49.778-99.557-49.778s-107.27,0-153.541,0c-49.778,0-87.025,27.563-121.29,68.007   c-42.768,50.479-38.561,102.36-38.561,102.36s0,159.851,0,198.762s4.207,89.391,53.634,144.076   c49.428,54.686,127.25,53.634,127.25,53.634h204.021c60.294,0,93.894-18.206,136.014-56.438   c45.571-41.365,49.077-117.084,49.077-117.084s0-125.497,0-149.334C797.054,448.725,777.423,441.714,739.564,441.714z    M370.084,402.627c0-17.424,14.125-31.549,31.55-31.549h121.465c17.425,0,31.551,14.125,31.551,31.549v7.888   c0,17.424-14.125,31.549-31.551,31.549H401.634c-17.424,0-31.55-14.125-31.55-31.549V402.627z M643.571,618.731   c0,17.424-14.125,31.549-31.55,31.549H401.692c-17.425,0-31.551-14.125-31.551-31.549v-7.889c0-17.424,14.125-31.549,31.551-31.549   h210.329c17.425,0,31.55,14.125,31.55,31.549V618.731z" fill="#262626" id="Blogger"/></g></svg>