<?xml version="1.0" encoding="utf-8"?>
<!-- Generator: Adobe Illustrator 22.1.0, SVG Export Plug-In . SVG Version: 6.00 Build 0)  -->
<svg version="1.1" id="Layer_1" xmlns="http://www.w3.org/2000/svg" xmlns:xlink="http://www.w3.org/1999/xlink" x="0px" y="0px"
	 viewBox="0 0 30 30" style="enable-background:new 0 0 30 30;" xml:space="preserve">
<style type="text/css">
	.st0{fill:#A0A09F;stroke:#A0A09F;stroke-width:0.966;stroke-miterlimit:10;}
</style>
<path class="st0" d="M24.9,7.5H5.3c-1.1,0-2-0.9-2-2v0c0-1.1,0.9-2,2-2h19.6c1.1,0,2,0.9,2,2v0C26.9,6.6,26,7.5,24.9,7.5z"/>
<path class="st0" d="M24.9,16.8H5.3c-1.1,0-2-0.9-2-2v0c0-1.1,0.9-2,2-2h19.6c1.1,0,2,0.9,2,2v0C26.9,15.9,26,16.8,24.9,16.8z"/>
<path class="st0" d="M24.9,26.1H5.3c-1.1,0-2-0.9-2-2v0c0-1.1,0.9-2,2-2h19.6c1.1,0,2,0.9,2,2v0C26.9,25.2,26,26.1,24.9,26.1z"/>
</svg>
